<?xml version="1.0" encoding="utf-8"?>
<!-- Generator: Adobe Illustrator 18.1.0, SVG Export Plug-In . SVG Version: 6.00 Build 0)  -->
<svg version="1.1" id="Layer_1" xmlns="http://www.w3.org/2000/svg" xmlns:xlink="http://www.w3.org/1999/xlink" x="0px" y="0px"
	 viewBox="0 0 500 500" enable-background="new 0 0 500 500" xml:space="preserve">
<path fill="#010101" d="M497.2,42.6l-0.7-4.7l-4.5,1.1c-23.3,6.1-47.1,9.2-70.4,9.2c-101.1,0-168.2-57.5-168.8-58.1l-2.8-2.4
	l-2.8,2.4c-0.7,0.6-67.7,58.1-168.8,58.1c-23.5,0-47.1-3.1-70.4-9.2l-4.5-1.1l-0.7,4.7C2.6,43.5-8.8,124,15.7,221.5
	C38.3,311.6,96.9,435,248,511.5l1.8,1l1.8-1c151.1-76.3,209.8-199.7,232.4-289.9C508.8,124,497.4,43.3,497.2,42.6z M430.5,250H250
	v209.8C143.7,406,93.1,323.9,69.5,250H250V41l0,0c0,0,81.1,71.1,197.9,40.6C447.9,81.6,459.3,159.8,430.5,250z"/>
</svg>
