<?xml version="1.0" encoding="utf-8"?>
<!-- Generator: Adobe Illustrator 18.1.0, SVG Export Plug-In . SVG Version: 6.00 Build 0)  -->
<svg version="1.1" id="Layer_1" xmlns="http://www.w3.org/2000/svg" xmlns:xlink="http://www.w3.org/1999/xlink" x="0px" y="0px"
	 viewBox="0 0 500 500" enable-background="new 0 0 500 500" xml:space="preserve">
<g>
	<path fill="#010101" d="M428.9,358.9h7.8v-7.8V119.9c0-4.3-3.5-7.8-7.8-7.8H69.3c-4.3,0-7.8,3.5-7.8,7.8v231.2v7.8h7.8H428.9z
		 M77.1,127.6h344v215.8h-344V127.6z"/>
	<path fill="#010101" d="M283.6,365.1v3.6c0,0-0.5,3.7-7.3,3.7H249h-27.2c-6.8,0-7.3-3.7-7.3-3.7v-3.6H0v14.5c0,0,8.7,8.4,23.9,8.4
		H250h226.1c15.2,0,23.9-8.4,23.9-8.4v-14.5H283.6z"/>
</g>
</svg>
