<?xml version="1.0" encoding="utf-8"?>
<!-- Generator: Adobe Illustrator 15.1.0, SVG Export Plug-In . SVG Version: 6.00 Build 0)  -->
<!DOCTYPE svg PUBLIC "-//W3C//DTD SVG 1.1//EN" "http://www.w3.org/Graphics/SVG/1.1/DTD/svg11.dtd">
<svg version="1.1" id="Layer_1" xmlns="http://www.w3.org/2000/svg" xmlns:xlink="http://www.w3.org/1999/xlink" x="0px" y="0px"
	 width="500px" height="500px" viewBox="0 0 500 500" enable-background="new 0 0 500 500" xml:space="preserve">
<path fill="#231F20" d="M499.988,93.224L500,86.984l-33.266-0.028l0.034-39.855l-6.239-0.005l-0.034,39.855l-46.643-0.04
	l0.033-39.855l-6.239-0.006l-0.033,39.855l-47.621-0.04l0.034-39.855l-6.239-0.005l-0.034,39.855l-46.982-0.04l0.034-39.855h-6.239
	l-0.034,39.85l-47.275-0.039l0.033-39.855h-6.245l-0.034,39.855l-45.484-0.04l0.034-39.855l-6.239-0.006l-0.034,39.855l-48.774-0.04
	l0.034-39.855l-6.239-0.005l-0.034,39.855l-46.513-0.04l0.034-39.855l-6.239-0.006L87.521,86.64L39.776,86.6l0.034-39.855
	l-6.239-0.005l-0.034,39.855L0.271,86.566l-0.006,6.24l33.266,0.028l-0.04,48.062l-33.266-0.028l-0.011,6.239l33.271,0.028
	l-0.04,46.196l-33.266-0.028l-0.005,6.234l33.271,0.028l-0.045,47.134l-33.266-0.028l-0.006,6.245l33.271,0.028l-0.045,47.129
	L0.09,300.045l-0.005,6.24l33.271,0.027l-0.017,16.819c-2.074,3.12-3.295,6.861-3.3,10.891c-0.006,4.03,1.215,7.777,3.284,10.902
	l-0.012,8.862l-33.266-0.029l-0.005,6.24l33.271,0.028l-0.04,46.778L0,406.776v6.239l33.266,0.028l-0.034,39.855l6.239,0.006
	l0.034-39.855l47.745,0.039l-0.034,39.855l6.24,0.006l0.034-39.855l46.513,0.04l-0.034,39.855l6.24,0.005l0.034-39.855l48.773,0.04
	l-0.034,39.855l6.239,0.006l0.034-39.855l45.484,0.039l-0.034,39.855h6.245l0.034-39.855l47.275,0.04l-0.033,39.855l6.239,0.005
	l0.033-39.855l46.982,0.04l-0.034,39.855l6.239,0.006l0.034-39.855l47.621,0.039l-0.034,39.855l6.239,0.006l0.034-39.855
	l46.643,0.04l-0.034,39.855l6.24,0.005l0.033-39.855l33.266,0.028v-6.239l-33.266-0.028l0.04-46.778l33.266,0.028l0.005-6.239
	l-33.265-0.028l0.039-47.474l33.266,0.028l0.006-6.24l-33.266-0.027l0.034-41.896c4.068-0.65,7.72-2.498,10.557-5.223l22.714,0.017
	l0.006-6.245l-18.334-0.017c1.079-2.436,1.707-5.12,1.707-7.963c0.011-9.84-7.2-17.938-16.616-19.447l0.018-19.735l33.266,0.028
	l0.005-6.234l-33.265-0.028l0.033-46.197l33.266,0.028l0.012-6.239l-33.266-0.028l0.033-48.062L499.988,93.224z M407.607,93.145
	l-0.012,10.212c-3.498-5.504-9.613-9.184-16.621-9.189c-10.914-0.011-19.759,8.828-19.764,19.736
	c-0.006,4.069,1.221,7.844,3.322,10.986l-14.186,16.277h-0.4l0.039-48.062L407.607,93.145z M445.416,247.044l-31.693-0.028
	l0.033-47.135l21.019,0.017l14.666,25.319c-3.521,3.566-5.708,8.455-5.714,13.863C443.721,241.918,444.343,244.603,445.416,247.044z
	 M93.585,294.275l38.075-41.252l8.478,0.012l-0.045,47.129l-46.513-0.04L93.585,294.275z M382.424,131.666
	c2.588,1.249,5.447,2.006,8.517,2.012c1.758,0,3.431-0.3,5.053-0.729l4.787,8.251l-26.647-0.022L382.424,131.666z M404.392,147.445
	l3.17,5.465l-0.033,40.731l-47.621-0.04l0.022-36.131l8.771-10.055L404.392,147.445z M146.389,237.075l34.52-37.385l14.282,0.011
	l-0.04,47.135l-48.773-0.04L146.389,237.075z M140.138,246.79l-2.712-0.006l2.718-2.944L140.138,246.79z M146.4,221.742
	l0.022-22.081l20.346,0.017L146.4,221.742z M300.43,209.936l-10.274,11.789c-2.826-1.56-6.03-2.532-9.489-2.532
	c-4.075-0.005-7.856,1.232-11.004,3.34l-16.503-18.724v-4.063l47.276,0.04L300.43,209.936z M306.675,199.791l2.588,0.005
	l-2.594,2.973L306.675,199.791z M262.586,246.892l-9.461-0.011l0.023-27.36l9.697,11.004c-1.209,2.561-1.943,5.386-1.949,8.404
	C260.891,241.766,261.513,244.45,262.586,246.892z M297.615,228.981l2.797-3.204l-0.017,21.143h-1.701
	c1.079-2.436,1.701-5.121,1.707-7.963C300.407,235.3,299.345,231.92,297.615,228.981z M246.909,212.445l-0.034,34.436l-45.484-0.04
	l0.04-47.135l34.266,0.028L246.909,212.445z M201.436,193.473l0.011-11.202c2.317,0.96,4.849,1.509,7.517,1.509
	c3.719,0.006,7.167-1.085,10.139-2.871l11.1,12.586L201.436,193.473z M195.202,184.204l-0.005,9.263l-8.54-0.006L195.202,184.204z
	 M195.146,253.08l-0.04,47.129l-48.773-0.039l0.045-47.129L195.146,253.08z M201.385,253.086l45.49,0.039l-0.045,47.129
	l-45.484-0.039L201.385,253.086z M253.114,253.125l13.847,0.012c3.549,3.425,8.353,5.556,13.671,5.562
	c5.318,0,10.128-2.12,13.683-5.533h6.075l-0.039,47.129l-47.271-0.04L253.114,253.125z M306.629,253.171l46.982,0.039l-0.034,47.129
	L306.59,300.3L306.629,253.171z M306.635,246.926l0.022-28.32l16.385-18.798l30.614,0.023l-0.033,47.134L306.635,246.926z
	 M328.473,193.58l25.218-28.942l-0.022,28.959L328.473,193.58z M353.702,148.796l-39.008,44.772l-8.015-0.011l0.034-46.196
	l46.988,0.04V148.796z M300.44,193.552l-47.27-0.04l0.033-46.196l47.271,0.04L300.44,193.552z M246.92,193.512l-2.849-0.005
	l-17.78-20.165c1.503-2.781,2.436-5.917,2.441-9.297c0.005-7.093-3.764-13.265-9.376-16.757l27.603,0.028L246.92,193.512z
	 M195.23,149.875c-3.69,3.583-6.002,8.585-6.013,14.135c0,3.233,0.848,6.245,2.227,8.941l-18.922,20.493l-26.099-0.017l0.04-46.197
	l48.768,0.04V149.875z M140.183,193.421l-46.513-0.04l0.034-46.196l46.519,0.04L140.183,193.421z M140.183,199.655l-0.028,28.852
	l-16.864,18.266l-29.666-0.022l0.04-47.135L140.183,199.655z M117.531,253.013l-23.935,25.924l0.022-25.941L117.531,253.013z
	 M140.093,306.403l-0.045,47.474l-46.513-0.039l0.04-47.475L140.093,306.403z M146.332,306.409l48.768,0.039l-0.04,47.474
	l-48.773-0.039L146.332,306.409z M201.339,306.454l45.49,0.04l-0.045,47.474l-45.484-0.04L201.339,306.454z M253.068,306.494
	l47.276,0.039l-0.04,47.474l-47.27-0.039L253.068,306.494z M306.584,306.539l46.982,0.039l-0.034,47.475l-46.987-0.04
	L306.584,306.539z M359.806,306.584l47.62,0.04l-0.033,47.474l-47.621-0.04L359.806,306.584z M359.816,300.345l0.034-47.129
	l47.621,0.04l-0.034,47.129L359.816,300.345z M359.862,246.971l0.034-47.135l47.62,0.04l-0.034,47.135L359.862,246.971z
	 M413.768,193.647l0.022-29.982l17.373,29.999L413.768,193.647z M405.019,127.778c0.972-0.989,1.814-2.091,2.565-3.267l-0.011,7.686
	L405.019,127.778z M353.747,93.1l-0.04,48.062l-46.981-0.04l0.034-48.062L353.747,93.1z M300.52,93.054l-0.033,48.062l-47.276-0.04
	l0.04-48.062L300.52,93.054z M247.005,93.015l-0.04,48.062l-45.484-0.04l0.034-48.062L247.005,93.015z M195.275,92.969
	l-0.034,48.062l-48.773-0.04l0.04-48.062L195.275,92.969z M140.268,92.924l-0.04,48.061l-46.513-0.039l0.034-48.062L140.268,92.924z
	 M39.771,92.839l47.745,0.04l-0.04,48.062l-47.745-0.04L39.771,92.839z M39.726,147.14l47.745,0.04l-0.04,46.197l-47.745-0.04
	L39.726,147.14z M39.686,199.57l47.745,0.04l-0.045,47.135l-47.745-0.04L39.686,199.57z M39.641,252.95l47.745,0.04l-0.034,32.705
	l-13.298,14.412l-34.458-0.028L39.641,252.95z M68.294,306.341l-9.45,10.241c-2.718-1.413-5.765-2.289-9.037-2.295
	c-3.758,0-7.229,1.103-10.224,2.922l0.011-10.891L68.294,306.341z M39.556,350.865c2.99,1.819,6.46,2.933,10.218,2.933
	c10.914,0.012,19.764-8.828,19.775-19.741c0-3.849-1.142-7.415-3.041-10.45l15.926-17.254l4.906,0.006l-0.045,47.474l-47.745-0.04
	L39.556,350.865z M39.511,406.811l0.04-46.779l47.745,0.04l-0.039,46.778L39.511,406.811z M93.489,406.855l0.04-46.778l46.519,0.039
	l-0.04,46.778L93.489,406.855z M146.247,406.9l0.04-46.778l48.768,0.04l-0.04,46.778L146.247,406.9z M201.255,406.945l0.039-46.778
	l45.49,0.04l-0.04,46.778L201.255,406.945z M252.99,406.985l0.039-46.778l47.271,0.039l-0.04,46.779L252.99,406.985z
	 M306.499,407.03l0.04-46.778l46.987,0.04l-0.039,46.778L306.499,407.03z M359.727,407.076l0.039-46.779l47.621,0.04l-0.039,46.778
	L359.727,407.076z M460.224,407.16l-46.637-0.039l0.039-46.778l46.638,0.039L460.224,407.16z M460.27,354.143l-46.638-0.039
	l0.034-47.475l46.643,0.04L460.27,354.143z M413.677,300.39l0.034-47.129l36.08,0.034c2.837,2.735,6.488,4.589,10.557,5.239
	l-0.033,41.896L413.677,300.39z M460.382,219.656c-0.655,0.102-1.282,0.243-1.91,0.407l-11.676-20.154l13.604,0.011L460.382,219.656
	z M460.404,193.687l-17.221-0.011l-26.771-46.219l44.026,0.034L460.404,193.687z M460.45,141.251l-46.644-0.039l0.04-48.062
	l46.637,0.04L460.45,141.251z"/>
</svg>
